<svg width="410" height="148" viewBox="0 0 410 148" fill="none" xmlns="http://www.w3.org/2000/svg">
<g clip-path="url(#clip0_55_231)">
<path d="M76.4091 16.3523V4.18182H133.75V16.3523H112.375V74H97.7841V16.3523H76.4091ZM143.193 74V4.18182H170.739C176.011 4.18182 180.511 5.125 184.239 7.01136C187.989 8.875 190.841 11.5227 192.795 14.9545C194.773 18.3636 195.761 22.375 195.761 26.9886C195.761 31.625 194.761 35.6136 192.761 38.9545C190.761 42.2727 187.864 44.8182 184.068 46.5909C180.295 48.3636 175.727 49.25 170.364 49.25H151.92V37.3864H167.977C170.795 37.3864 173.136 37 175 36.2273C176.864 35.4545 178.25 34.2955 179.159 32.75C180.091 31.2045 180.557 29.2841 180.557 26.9886C180.557 24.6705 180.091 22.7159 179.159 21.125C178.25 19.5341 176.852 18.3295 174.966 17.5114C173.102 16.6705 170.75 16.25 167.909 16.25H157.955V74H143.193ZM180.898 42.2273L198.25 74H181.955L164.977 42.2273H180.898ZM218.227 74H202.409L226.511 4.18182H245.534L269.602 74H253.784L236.295 20.1364H235.75L218.227 74ZM217.239 46.5568H254.602V58.0795H217.239V46.5568ZM314.287 24.2614C314.014 21.5114 312.844 19.375 310.776 17.8523C308.707 16.3295 305.901 15.5682 302.355 15.5682C299.946 15.5682 297.912 15.9091 296.253 16.5909C294.594 17.25 293.321 18.1705 292.435 19.3523C291.571 20.5341 291.139 21.875 291.139 23.375C291.094 24.625 291.355 25.7159 291.923 26.6477C292.514 27.5795 293.321 28.3864 294.344 29.0682C295.366 29.7273 296.548 30.3068 297.889 30.8068C299.23 31.2841 300.662 31.6932 302.185 32.0341L308.457 33.5341C311.503 34.2159 314.298 35.125 316.844 36.2614C319.389 37.3977 321.594 38.7955 323.457 40.4545C325.321 42.1136 326.764 44.0682 327.787 46.3182C328.832 48.5682 329.366 51.1477 329.389 54.0568C329.366 58.3295 328.276 62.0341 326.116 65.1705C323.98 68.2841 320.889 70.7045 316.844 72.4318C312.821 74.1364 307.969 74.9886 302.287 74.9886C296.651 74.9886 291.741 74.125 287.56 72.3977C283.401 70.6705 280.151 68.1136 277.81 64.7273C275.491 61.3182 274.276 57.1023 274.162 52.0795H288.446C288.605 54.4205 289.276 56.375 290.457 57.9432C291.662 59.4886 293.264 60.6591 295.264 61.4545C297.287 62.2273 299.571 62.6136 302.116 62.6136C304.616 62.6136 306.787 62.25 308.628 61.5227C310.491 60.7955 311.935 59.7841 312.957 58.4886C313.98 57.1932 314.491 55.7045 314.491 54.0227C314.491 52.4545 314.026 51.1364 313.094 50.0682C312.185 49 310.844 48.0909 309.071 47.3409C307.321 46.5909 305.173 45.9091 302.628 45.2955L295.026 43.3864C289.139 41.9545 284.491 39.7159 281.082 36.6705C277.673 33.625 275.98 29.5227 276.003 24.3636C275.98 20.1364 277.105 16.4432 279.378 13.2841C281.673 10.125 284.821 7.65909 288.821 5.88636C292.821 4.11363 297.366 3.22727 302.457 3.22727C307.639 3.22727 312.162 4.11363 316.026 5.88636C319.912 7.65909 322.935 10.125 325.094 13.2841C327.253 16.4432 328.366 20.1023 328.435 24.2614H314.287ZM339.318 74V4.18182H354.08V32.9886H384.045V4.18182H398.773V74H384.045V45.1591H354.08V74H339.318Z" fill="#61AD58"/>
<path d="M12.3423 100.441L13.8524 91.4561H56.1848L54.6748 100.441H38.8945L31.8475 143H21.0756L28.1226 100.441H12.3423ZM57.1853 143H45.5073L71.8582 91.4561H85.9019L95.1133 143H83.4354L77.1686 103.235H76.7659L57.1853 143ZM59.8531 122.74H87.4371L85.9774 131.247H58.3933L59.8531 122.74ZM138.861 108.117C138.727 106.892 138.442 105.81 138.006 104.871C137.586 103.914 137.007 103.109 136.269 102.454C135.531 101.783 134.633 101.272 133.576 100.919C132.519 100.567 131.294 100.391 129.902 100.391C127.267 100.391 124.801 101.045 122.502 102.354C120.22 103.663 118.274 105.567 116.663 108.067C115.053 110.55 113.954 113.587 113.366 117.178C112.762 120.768 112.762 123.822 113.366 126.339C113.987 128.856 115.153 130.777 116.865 132.102C118.593 133.411 120.816 134.065 123.534 134.065C126.001 134.065 128.215 133.629 130.179 132.757C132.142 131.867 133.744 130.617 134.986 129.007C136.244 127.396 137.049 125.492 137.402 123.294L139.566 123.621H126.303L127.662 115.416H149.231L148.123 121.909C147.402 126.44 145.816 130.332 143.367 133.587C140.917 136.842 137.863 139.342 134.205 141.087C130.564 142.832 126.571 143.705 122.225 143.705C117.393 143.705 113.324 142.639 110.019 140.508C106.73 138.361 104.39 135.315 102.997 131.372C101.621 127.413 101.378 122.715 102.267 117.278C102.955 113.101 104.18 109.376 105.942 106.104C107.72 102.815 109.893 100.03 112.46 97.7481C115.027 95.4662 117.871 93.7296 120.992 92.5383C124.13 91.347 127.393 90.7514 130.783 90.7514C133.702 90.7514 136.345 91.1792 138.71 92.035C141.093 92.8739 143.132 94.0652 144.826 95.6088C146.538 97.1524 147.83 98.9897 148.702 101.121C149.591 103.235 150.002 105.567 149.935 108.117H138.861ZM192.777 108.117C192.643 106.892 192.358 105.81 191.922 104.871C191.502 103.914 190.923 103.109 190.185 102.454C189.447 101.783 188.549 101.272 187.492 100.919C186.435 100.567 185.21 100.391 183.818 100.391C181.183 100.391 178.717 101.045 176.418 102.354C174.136 103.663 172.19 105.567 170.579 108.067C168.969 110.55 167.87 113.587 167.282 117.178C166.678 120.768 166.678 123.822 167.282 126.339C167.903 128.856 169.069 130.777 170.781 132.102C172.509 133.411 174.732 134.065 177.45 134.065C179.917 134.065 182.131 133.629 184.095 132.757C186.058 131.867 187.66 130.617 188.902 129.007C190.16 127.396 190.965 125.492 191.318 123.294L193.482 123.621H180.219L181.578 115.416H203.147L202.039 121.909C201.318 126.44 199.732 130.332 197.283 133.587C194.833 136.842 191.779 139.342 188.121 141.087C184.48 142.832 180.487 143.705 176.141 143.705C171.309 143.705 167.24 142.639 163.935 140.508C160.646 138.361 158.306 135.315 156.913 131.372C155.537 127.413 155.294 122.715 156.183 117.278C156.871 113.101 158.096 109.376 159.858 106.104C161.636 102.815 163.809 100.03 166.376 97.7481C168.943 95.4662 171.787 93.7296 174.908 92.5383C178.046 91.347 181.309 90.7514 184.699 90.7514C187.618 90.7514 190.261 91.1792 192.626 92.035C195.009 92.8739 197.048 94.0652 198.742 95.6088C200.454 97.1524 201.746 98.9897 202.618 101.121C203.507 103.235 203.918 105.567 203.851 108.117H192.777ZM206.727 143L215.284 91.4561H250.016L248.506 100.441H224.672L222.658 112.723H244.705L243.195 121.708H221.148L219.135 134.015H243.069L241.559 143H206.727ZM250.123 143L258.68 91.4561H279.015C282.908 91.4561 286.113 92.144 288.629 93.5199C291.163 94.8957 292.942 96.8504 293.965 99.384C295.005 101.901 295.249 104.871 294.695 108.293C294.124 111.716 292.891 114.653 290.995 117.102C289.116 119.552 286.666 121.439 283.646 122.765C280.643 124.074 277.161 124.728 273.202 124.728H259.586L261.096 115.97H272.925C275.005 115.97 276.784 115.684 278.26 115.114C279.737 114.543 280.903 113.688 281.759 112.547C282.631 111.406 283.202 109.988 283.47 108.293C283.755 106.565 283.655 105.122 283.168 103.965C282.681 102.79 281.801 101.901 280.525 101.297C279.25 100.676 277.572 100.366 275.492 100.366H268.143L261.02 143H250.123ZM281.834 119.543L290.769 143H278.738L270.081 119.543H281.834ZM331.05 106.431C331.134 104.334 330.521 102.715 329.213 101.574C327.921 100.433 325.966 99.8622 323.349 99.8622C321.57 99.8622 320.026 100.114 318.718 100.617C317.409 101.104 316.36 101.783 315.572 102.656C314.8 103.512 314.322 104.501 314.137 105.626C313.953 106.548 314.011 107.354 314.313 108.042C314.632 108.73 315.127 109.325 315.798 109.829C316.486 110.315 317.3 110.743 318.24 111.112C319.179 111.465 320.177 111.767 321.235 112.018L325.664 113.126C327.829 113.629 329.775 114.3 331.503 115.139C333.248 115.978 334.708 117.01 335.882 118.235C337.074 119.46 337.912 120.903 338.399 122.564C338.886 124.225 338.953 126.129 338.6 128.277C338.063 131.431 336.813 134.166 334.85 136.482C332.887 138.78 330.312 140.567 327.124 141.842C323.936 143.101 320.245 143.73 316.05 143.73C311.889 143.73 308.374 143.092 305.505 141.817C302.635 140.542 300.547 138.654 299.238 136.154C297.946 133.638 297.56 130.525 298.08 126.817H308.625C308.441 128.545 308.693 129.988 309.38 131.146C310.085 132.287 311.134 133.151 312.526 133.738C313.919 134.309 315.555 134.594 317.434 134.594C319.297 134.594 320.949 134.325 322.392 133.789C323.852 133.252 325.035 132.505 325.941 131.549C326.847 130.592 327.401 129.493 327.602 128.252C327.803 127.094 327.627 126.121 327.073 125.332C326.52 124.544 325.631 123.872 324.406 123.319C323.198 122.748 321.696 122.245 319.901 121.809L314.515 120.399C310.354 119.342 307.208 117.689 305.077 115.441C302.946 113.193 302.182 110.164 302.786 106.356C303.323 103.235 304.624 100.508 306.687 98.1759C308.768 95.8269 311.385 94.0064 314.54 92.7145C317.711 91.4058 321.176 90.7514 324.934 90.7514C328.76 90.7514 331.99 91.4141 334.624 92.7397C337.258 94.0484 339.179 95.8773 340.387 98.2263C341.595 100.575 341.965 103.31 341.495 106.431H331.05Z" fill="#8D4E21"/>
<g clip-path="url(#clip1_55_231)">
<path d="M17.4062 10.5625C16.1962 10.5625 15.0357 11.0432 14.1801 11.8988C13.3244 12.7545 12.8438 13.9149 12.8438 15.125V19.6875C12.8438 20.8976 13.3244 22.058 14.1801 22.9137C15.0357 23.7693 16.1962 24.25 17.4062 24.25H19.6875V65.3125C19.6875 67.7326 20.6489 70.0536 22.3602 71.7648C24.0714 73.4761 26.3924 74.4375 28.8125 74.4375H56.1875C58.6076 74.4375 60.9286 73.4761 62.6398 71.7648C64.3511 70.0536 65.3125 67.7326 65.3125 65.3125V24.25H67.5938C68.8038 24.25 69.9643 23.7693 70.8199 22.9137C71.6756 22.058 72.1562 20.8976 72.1562 19.6875V15.125C72.1562 13.9149 71.6756 12.7545 70.8199 11.8988C69.9643 11.0432 68.8038 10.5625 67.5938 10.5625H51.625C51.625 9.35245 51.1443 8.19196 50.2887 7.33633C49.433 6.48069 48.2726 6 47.0625 6H37.9375C36.7274 6 35.567 6.48069 34.7113 7.33633C33.8557 8.19196 33.375 9.35245 33.375 10.5625H17.4062ZM31.0938 28.8125C31.6988 28.8125 32.279 29.0528 32.7068 29.4807C33.1347 29.9085 33.375 30.4887 33.375 31.0938V63.0312C33.375 63.6363 33.1347 64.2165 32.7068 64.6443C32.279 65.0722 31.6988 65.3125 31.0938 65.3125C30.4887 65.3125 29.9085 65.0722 29.4807 64.6443C29.0528 64.2165 28.8125 63.6363 28.8125 63.0312V31.0938C28.8125 30.4887 29.0528 29.9085 29.4807 29.4807C29.9085 29.0528 30.4887 28.8125 31.0938 28.8125ZM42.5 28.8125C43.105 28.8125 43.6853 29.0528 44.1131 29.4807C44.5409 29.9085 44.7812 30.4887 44.7812 31.0938V63.0312C44.7812 63.6363 44.5409 64.2165 44.1131 64.6443C43.6853 65.0722 43.105 65.3125 42.5 65.3125C41.895 65.3125 41.3147 65.0722 40.8869 64.6443C40.4591 64.2165 40.2188 63.6363 40.2188 63.0312V31.0938C40.2188 30.4887 40.4591 29.9085 40.8869 29.4807C41.3147 29.0528 41.895 28.8125 42.5 28.8125ZM56.1875 31.0938V63.0312C56.1875 63.6363 55.9472 64.2165 55.5193 64.6443C55.0915 65.0722 54.5113 65.3125 53.9062 65.3125C53.3012 65.3125 52.721 65.0722 52.2932 64.6443C51.8653 64.2165 51.625 63.6363 51.625 63.0312V31.0938C51.625 30.4887 51.8653 29.9085 52.2932 29.4807C52.721 29.0528 53.3012 28.8125 53.9062 28.8125C54.5113 28.8125 55.0915 29.0528 55.5193 29.4807C55.9472 29.9085 56.1875 30.4887 56.1875 31.0938Z" fill="#61AD58"/>
</g>
<path d="M356.976 139.375L358.81 127.875H348.477L349.381 122.125H359.714L362.452 104.875H352.119L353.023 99.125H363.357L365.191 87.625H370.357L368.523 99.125H384.023L385.857 87.625H391.024L389.19 99.125H399.523L398.619 104.875H388.286L385.547 122.125H395.881L394.977 127.875H384.643L382.809 139.375H377.642L379.477 127.875H363.977L362.142 139.375H356.976ZM367.619 104.875L364.881 122.125H380.381L383.119 104.875H367.619Z" fill="#8D4E21"/>
</g>
<defs>
<clipPath id="clip0_55_231">
<rect width="410" height="148" fill="white"/>
</clipPath>
<clipPath id="clip1_55_231">
<rect width="73" height="73" fill="white" transform="translate(6 6)"/>
</clipPath>
</defs>
</svg>
