<svg width="146" height="148" viewBox="0 0 146 148" fill="none" xmlns="http://www.w3.org/2000/svg">
<g clip-path="url(#clip0_55_244)">
<path d="M22.8125 10.125C20.3924 10.125 18.0714 11.0864 16.3602 12.7977C14.6489 14.5089 13.6875 16.8299 13.6875 19.25V28.375C13.6875 30.7951 14.6489 33.1161 16.3602 34.8273C18.0714 36.5386 20.3924 37.5 22.8125 37.5H27.375V119.625C27.375 124.465 29.2978 129.107 32.7203 132.53C36.1428 135.952 40.7848 137.875 45.625 137.875H100.375C105.215 137.875 109.857 135.952 113.28 132.53C116.702 129.107 118.625 124.465 118.625 119.625V37.5H123.188C125.608 37.5 127.929 36.5386 129.64 34.8273C131.351 33.1161 132.312 30.7951 132.312 28.375V19.25C132.312 16.8299 131.351 14.5089 129.64 12.7977C127.929 11.0864 125.608 10.125 123.188 10.125H91.25C91.25 7.7049 90.2886 5.38392 88.5773 3.67265C86.8661 1.96138 84.5451 1 82.125 1L63.875 1C61.4549 1 59.1339 1.96138 57.4227 3.67265C55.7114 5.38392 54.75 7.7049 54.75 10.125H22.8125ZM50.1875 46.625C51.3976 46.625 52.558 47.1057 53.4137 47.9613C54.2693 48.817 54.75 49.9774 54.75 51.1875V115.062C54.75 116.273 54.2693 117.433 53.4137 118.289C52.558 119.144 51.3976 119.625 50.1875 119.625C48.9774 119.625 47.817 119.144 46.9613 118.289C46.1057 117.433 45.625 116.273 45.625 115.062V51.1875C45.625 49.9774 46.1057 48.817 46.9613 47.9613C47.817 47.1057 48.9774 46.625 50.1875 46.625ZM73 46.625C74.2101 46.625 75.3705 47.1057 76.2262 47.9613C77.0818 48.817 77.5625 49.9774 77.5625 51.1875V115.062C77.5625 116.273 77.0818 117.433 76.2262 118.289C75.3705 119.144 74.2101 119.625 73 119.625C71.7899 119.625 70.6295 119.144 69.7738 118.289C68.9182 117.433 68.4375 116.273 68.4375 115.062V51.1875C68.4375 49.9774 68.9182 48.817 69.7738 47.9613C70.6295 47.1057 71.7899 46.625 73 46.625ZM100.375 51.1875V115.062C100.375 116.273 99.8943 117.433 99.0387 118.289C98.183 119.144 97.0226 119.625 95.8125 119.625C94.6024 119.625 93.442 119.144 92.5863 118.289C91.7307 117.433 91.25 116.273 91.25 115.062V51.1875C91.25 49.9774 91.7307 48.817 92.5863 47.9613C93.442 47.1057 94.6024 46.625 95.8125 46.625C97.0226 46.625 98.183 47.1057 99.0387 47.9613C99.8943 48.817 100.375 49.9774 100.375 51.1875Z" fill="#61AD58"/>
<path d="M44.4433 117.5L47.52 98.1667H30.1866L31.7033 88.5H49.0366L53.63 59.5H36.2966L37.8133 49.8333H55.1466L58.2233 30.5H66.89L63.8133 49.8333H89.8133L92.89 30.5H101.557L98.48 49.8333H115.813L114.297 59.5H96.9633L92.37 88.5H109.703L108.187 98.1667H90.8533L87.7766 117.5H79.11L82.1866 98.1667H56.1866L53.11 117.5H44.4433ZM62.2966 59.5L57.7033 88.5H83.7033L88.2966 59.5H62.2966Z" fill="#8D4E21"/>
</g>
<defs>
<clipPath id="clip0_55_244">
<rect width="146" height="146" fill="white" transform="translate(0 1)"/>
</clipPath>
</defs>
</svg>
